STARTFONT 2.1
FONT -FontForge-Fez-Regular-R-Normal--16-150-75-75-C-160-ISO10646-1
SIZE 15 75 75
FONTBOUNDINGBOX 16 16 0 -4
COMMENT "Generated by fontforge, http://fontforge.sourceforge.net"
COMMENT "Copyright (c) 2015, peko,,,"
STARTPROPERTIES 34
FOUNDRY "FontForge"
FAMILY_NAME "Fez"
WEIGHT_NAME "Regular"
SLANT "R"
SETWIDTH_NAME "Normal"
ADD_STYLE_NAME ""
PIXEL_SIZE 16
POINT_SIZE 150
RESOLUTION_X 75
RESOLUTION_Y 75
SPACING "C"
AVERAGE_WIDTH 160
CHARSET_REGISTRY "ISO10646"
CHARSET_ENCODING "1"
FONTNAME_REGISTRY ""
CHARSET_COLLECTIONS "ISO10646-1"
FONT_NAME "Fez"
FACE_NAME "Fez"
COPYRIGHT "Copyright (c) 2015, peko,,,"
FONT_VERSION "001.000"
FONT_ASCENT 12
FONT_DESCENT 4
UNDERLINE_POSITION -2
UNDERLINE_THICKNESS 1
X_HEIGHT 10
CAP_HEIGHT 10
RAW_ASCENT 800
RAW_DESCENT 200
NORM_SPACE 16
RELATIVE_WEIGHT 40
RELATIVE_SETWIDTH 50
FIGURE_WIDTH 16
AVG_LOWERCASE_WIDTH 160
AVG_UPPERCASE_WIDTH 160
ENDPROPERTIES
CHARS 103
STARTCHAR space
ENCODING 32
SWIDTH 1000 0
DWIDTH 16 0
BBX 15 1 0 3
BITMAP
AAAA
ENDCHAR
STARTCHAR exclam
ENCODING 33
SWIDTH 1000 0
DWIDTH 16 0
BBX 1 15 7 -4
BITMAP
80
80
80
80
80
80
80
80
80
80
80
00
80
80
80
ENDCHAR
STARTCHAR quotedbl
ENCODING 34
SWIDTH 1000 0
DWIDTH 16 0
BBX 5 7 5 0
BITMAP
88
88
88
88
88
88
88
ENDCHAR
STARTCHAR numbersign
ENCODING 35
SWIDTH 1000 0
DWIDTH 16 0
BBX 15 15 0 -4
BITMAP
0820
0820
0820
0820
FFFE
0820
0820
0820
0820
0820
FFFE
0820
0820
0820
0820
ENDCHAR
STARTCHAR dollar
ENCODING 36
SWIDTH 1000 0
DWIDTH 16 0
BBX 15 15 0 -4
BITMAP
FFFE
8000
8000
8000
8000
8000
8000
FFFE
0002
0002
0002
0002
0002
0002
FFFE
ENDCHAR
STARTCHAR percent
ENCODING 37
SWIDTH 1000 0
DWIDTH 16 0
BBX 15 15 0 -4
BITMAP
FDFE
0100
0100
0100
0100
0100
0100
0100
0100
0100
0100
0100
0100
0100
FF7E
ENDCHAR
STARTCHAR ampersand
ENCODING 38
SWIDTH 1000 0
DWIDTH 16 0
BBX 9 13 3 -2
BITMAP
3E00
2200
2200
2200
3E00
0000
FF80
8080
8080
8080
8080
8080
FF80
ENDCHAR
STARTCHAR quotesingle
ENCODING 39
SWIDTH 1000 0
DWIDTH 16 0
BBX 1 7 7 0
BITMAP
80
80
80
80
80
80
80
ENDCHAR
STARTCHAR parenleft
ENCODING 40
SWIDTH 1000 0
DWIDTH 16 0
BBX 5 15 10 -4
BITMAP
F8
80
80
80
80
80
80
80
80
80
80
80
80
80
F8
ENDCHAR
STARTCHAR parenright
ENCODING 41
SWIDTH 1000 0
DWIDTH 16 0
BBX 5 15 0 -4
BITMAP
F8
08
08
08
08
08
08
08
08
08
08
08
08
08
F8
ENDCHAR
STARTCHAR asterisk
ENCODING 42
SWIDTH 1000 0
DWIDTH 16 0
BBX 7 7 4 0
BITMAP
FE
82
82
82
82
82
FE
ENDCHAR
STARTCHAR plus
ENCODING 43
SWIDTH 1000 0
DWIDTH 16 0
BBX 7 7 4 0
BITMAP
10
10
10
FE
10
10
10
ENDCHAR
STARTCHAR comma
ENCODING 44
SWIDTH 1000 0
DWIDTH 16 0
BBX 7 6 4 0
BITMAP
1E
10
10
10
10
F0
ENDCHAR
STARTCHAR hyphen
ENCODING 45
SWIDTH 1000 0
DWIDTH 16 0
BBX 7 1 4 3
BITMAP
FE
ENDCHAR
STARTCHAR period
ENCODING 46
SWIDTH 1000 0
DWIDTH 16 0
BBX 3 3 6 2
BITMAP
E0
A0
E0
ENDCHAR
STARTCHAR slash
ENCODING 47
SWIDTH 1000 0
DWIDTH 16 0
BBX 15 15 0 -4
BITMAP
01FE
0100
0100
0100
0100
0100
0100
0100
0100
0100
0100
0100
0100
0100
FF00
ENDCHAR
STARTCHAR zero
ENCODING 48
SWIDTH 1000 0
DWIDTH 16 0
BBX 15 15 0 -4
BITMAP
FFFE
8002
8002
8002
8002
8002
8002
8002
8002
8002
8002
8002
8002
8002
FFFE
ENDCHAR
STARTCHAR one
ENCODING 49
SWIDTH 1000 0
DWIDTH 16 0
BBX 15 15 0 -4
BITMAP
FFFE
8102
8102
8102
8102
8102
8102
8102
8002
8002
8002
8002
8002
8002
FFFE
ENDCHAR
STARTCHAR two
ENCODING 50
SWIDTH 1000 0
DWIDTH 16 0
BBX 15 15 0 -4
BITMAP
FFFE
8002
8002
8002
8002
8002
8002
81FE
8002
8002
8002
8002
8002
8002
FFFE
ENDCHAR
STARTCHAR three
ENCODING 51
SWIDTH 1000 0
DWIDTH 16 0
BBX 15 15 0 -4
BITMAP
FFFE
8002
8002
8002
8002
8002
8002
8102
8102
8102
8102
8102
8102
8102
FFFE
ENDCHAR
STARTCHAR four
ENCODING 52
SWIDTH 1000 0
DWIDTH 16 0
BBX 15 15 0 -4
BITMAP
FFFE
8002
8002
8002
8002
8002
8002
FF02
8002
8002
8002
8002
8002
8002
FFFE
ENDCHAR
STARTCHAR five
ENCODING 53
SWIDTH 1000 0
DWIDTH 16 0
BBX 15 15 0 -4
BITMAP
FFFE
8102
8102
8102
8102
8102
8102
81FE
8002
8002
8002
8002
8002
8002
FFFE
ENDCHAR
STARTCHAR six
ENCODING 54
SWIDTH 1000 0
DWIDTH 16 0
BBX 15 15 0 -4
BITMAP
FFFE
8002
8002
8002
8002
8002
8002
81FE
8102
8102
8102
8102
8102
8102
FFFE
ENDCHAR
STARTCHAR seven
ENCODING 55
SWIDTH 1000 0
DWIDTH 16 0
BBX 15 15 0 -4
BITMAP
FFFE
8002
8002
8002
8002
8002
8002
FF02
8102
8102
8102
8102
8102
8102
FFFE
ENDCHAR
STARTCHAR eight
ENCODING 56
SWIDTH 1000 0
DWIDTH 16 0
BBX 15 15 0 -4
BITMAP
FFFE
8102
8102
8102
8102
8102
8102
FF02
8002
8002
8002
8002
8002
8002
FFFE
ENDCHAR
STARTCHAR nine
ENCODING 57
SWIDTH 1000 0
DWIDTH 16 0
BBX 15 15 0 -4
BITMAP
FFFE
8102
8102
8102
8102
8102
8102
FF02
8102
8102
8102
8102
8102
8102
FFFE
ENDCHAR
STARTCHAR colon
ENCODING 58
SWIDTH 1000 0
DWIDTH 16 0
BBX 1 11 7 -2
BITMAP
80
80
80
80
00
00
00
80
80
80
80
ENDCHAR
STARTCHAR semicolon
ENCODING 59
SWIDTH 1000 0
DWIDTH 16 0
BBX 11 1 2 3
BITMAP
F1E0
ENDCHAR
STARTCHAR less
ENCODING 60
SWIDTH 1000 0
DWIDTH 16 0
BBX 5 5 5 1
BITMAP
F8
80
80
80
F8
ENDCHAR
STARTCHAR equal
ENCODING 61
SWIDTH 1000 0
DWIDTH 16 0
BBX 7 5 4 1
BITMAP
FE
00
00
00
FE
ENDCHAR
STARTCHAR greater
ENCODING 62
SWIDTH 1000 0
DWIDTH 16 0
BBX 6 6 5 0
BITMAP
FC
04
04
04
04
FC
ENDCHAR
STARTCHAR question
ENCODING 63
SWIDTH 1000 0
DWIDTH 16 0
BBX 7 11 4 -4
BITMAP
FE
82
82
02
02
02
1E
00
10
10
10
ENDCHAR
STARTCHAR at
ENCODING 64
SWIDTH 1000 0
DWIDTH 16 0
BBX 15 15 0 -4
BITMAP
FFFE
8002
8002
8002
8FE2
8822
8822
8822
8822
8822
8FFE
8002
8002
8002
FFFE
ENDCHAR
STARTCHAR A
ENCODING 65
SWIDTH 1000 0
DWIDTH 16 0
BBX 15 15 0 -4
BITMAP
FFFE
FFFE
FFFE
FFFE
07C0
F7DE
F7DE
F01E
FFFE
FFFE
FFFE
FFFE
FFFE
FFFE
FFFE
ENDCHAR
STARTCHAR B
ENCODING 66
SWIDTH 1000 0
DWIDTH 16 0
BBX 15 15 0 -4
BITMAP
FFFE
FFFE
FFFE
FFFE
F01E
F7DE
F7DE
F7DE
F7DE
F7DE
001E
FFFE
FFFE
FFFE
FFFE
ENDCHAR
STARTCHAR C
ENCODING 67
SWIDTH 1000 0
DWIDTH 16 0
BBX 15 15 0 -4
BITMAP
FFFE
FFFE
FFFE
FFFE
FFC0
FFDE
FFDE
FFDE
FFDE
FFDE
FFC0
FFFE
FFFE
FFFE
FFFE
ENDCHAR
STARTCHAR D
ENCODING 68
SWIDTH 1000 0
DWIDTH 16 0
BBX 15 15 0 -4
BITMAP
FFFE
FFFE
FFFE
FFFE
FFFE
FFFE
FFFE
FFFE
FFFE
FFFE
07FE
F7FE
F7FE
F7FE
F7FE
ENDCHAR
STARTCHAR E
ENCODING 69
SWIDTH 1000 0
DWIDTH 16 0
BBX 15 15 0 -4
BITMAP
FFFE
FFFE
FFFE
FFFE
07FE
F7FE
F7FE
F7FE
F7FE
F7FE
F000
FFFE
FFFE
FFFE
FFFE
ENDCHAR
STARTCHAR F
ENCODING 70
SWIDTH 1000 0
DWIDTH 16 0
BBX 15 15 0 -4
BITMAP
FFFE
FFFE
FFFE
FFFE
F7DE
F7DE
F7DE
001E
F7DE
F7DE
F7DE
FFFE
FFFE
FFFE
FFFE
ENDCHAR
STARTCHAR G
ENCODING 71
SWIDTH 1000 0
DWIDTH 16 0
BBX 15 15 0 -4
BITMAP
F7FE
F7FE
F7FE
F7FE
F0FE
FEFE
FEFE
FEFE
FEFE
FEFE
F0FE
F7FE
F7FE
F7FE
F7FE
ENDCHAR
STARTCHAR H
ENCODING 72
SWIDTH 1000 0
DWIDTH 16 0
BBX 15 15 0 -4
BITMAP
FFFE
FFFE
FFFE
FFFE
F01E
F7DE
F7DE
F7DE
F7DE
F7DE
F01E
FFDE
FFDE
FFDE
FFDE
ENDCHAR
STARTCHAR I
ENCODING 73
SWIDTH 1000 0
DWIDTH 16 0
BBX 15 15 0 -4
BITMAP
F7DE
F7DE
F7DE
F7DE
F01E
FFFE
FFFE
FFFE
FFFE
FFFE
FFFE
FFFE
FFFE
FFFE
FFFE
ENDCHAR
STARTCHAR J
ENCODING 74
SWIDTH 1000 0
DWIDTH 16 0
BBX 15 15 0 -4
BITMAP
FFFE
FFFE
FFFE
FFFE
FFFE
FFFE
FFFE
FFFE
FFFE
FFFE
FFC0
FFDE
FFDE
FFDE
FFDE
ENDCHAR
STARTCHAR K
ENCODING 75
SWIDTH 1000 0
DWIDTH 16 0
BBX 15 15 0 -4
BITMAP
FFDE
FFDE
FFDE
FFDE
FFDE
FFDE
FFDE
FFDE
FFDE
FFDE
F01E
F7FE
F7FE
F7FE
F7FE
ENDCHAR
STARTCHAR L
ENCODING 76
SWIDTH 1000 0
DWIDTH 16 0
BBX 15 15 0 -4
BITMAP
FFFE
FFFE
FFFE
FFFE
F01E
FEFE
FEFE
FEFE
FEFE
FEFE
F01E
FEFE
FEFE
FEFE
FEFE
ENDCHAR
STARTCHAR M
ENCODING 77
SWIDTH 1000 0
DWIDTH 16 0
BBX 15 15 0 -4
BITMAP
FFFE
FFFE
FFFE
FFFE
FFFE
FFFE
FFFE
F01E
F7DE
F7DE
07C0
FFFE
FFFE
FFFE
FFFE
ENDCHAR
STARTCHAR N
ENCODING 78
SWIDTH 1000 0
DWIDTH 16 0
BBX 15 15 0 -4
BITMAP
FFFE
FFFE
FFFE
FFFE
F000
F7DE
F7DE
F7DE
F7DE
F7DE
F01E
FFFE
FFFE
FFFE
FFFE
ENDCHAR
STARTCHAR O
ENCODING 79
SWIDTH 1000 0
DWIDTH 16 0
BBX 15 15 0 -4
BITMAP
FFFE
FFFE
FFFE
FFFE
07FE
F7FE
F7FE
F7FE
F7FE
F7FE
07FE
FFFE
FFFE
FFFE
FFFE
ENDCHAR
STARTCHAR P
ENCODING 80
SWIDTH 1000 0
DWIDTH 16 0
BBX 15 15 0 -4
BITMAP
FFDE
FFDE
FFDE
FFDE
FFC0
FFFE
FFFE
FFFE
FFFE
FFFE
FFFE
FFFE
FFFE
FFFE
FFFE
ENDCHAR
STARTCHAR Q
ENCODING 81
SWIDTH 1000 0
DWIDTH 16 0
BBX 15 15 0 -4
BITMAP
FFFE
FFFE
FFFE
FFFE
001E
FFDE
FFDE
FFDE
FFDE
FFDE
FFC0
FFFE
FFFE
FFFE
FFFE
ENDCHAR
STARTCHAR R
ENCODING 82
SWIDTH 1000 0
DWIDTH 16 0
BBX 15 15 0 -4
BITMAP
FFFE
FFFE
FFFE
FFFE
F7DE
F7DE
F7DE
F000
F7DE
F7DE
F7DE
FFFE
FFFE
FFFE
FFFE
ENDCHAR
STARTCHAR S
ENCODING 83
SWIDTH 1000 0
DWIDTH 16 0
BBX 15 15 0 -4
BITMAP
FFDE
FFDE
FFDE
FFDE
FE1E
FEFE
FEFE
FEFE
FEFE
FEFE
FE1E
FFDE
FFDE
FFDE
FFDE
ENDCHAR
STARTCHAR T
ENCODING 84
SWIDTH 1000 0
DWIDTH 16 0
BBX 15 15 0 -4
BITMAP
F7FE
F7FE
F7FE
F7FE
F01E
F7DE
F7DE
F7DE
F7DE
F7DE
F01E
FFFE
FFFE
FFFE
FFFE
ENDCHAR
STARTCHAR U
ENCODING 85
SWIDTH 1000 0
DWIDTH 16 0
BBX 15 15 0 -4
BITMAP
FFFE
FFFE
FFFE
FFFE
FFFE
FFFE
FFFE
FFFE
FFFE
FFFE
F01E
F7DE
F7DE
F7DE
F7DE
ENDCHAR
STARTCHAR V
ENCODING 86
SWIDTH 1000 0
DWIDTH 16 0
BBX 15 15 0 -4
BITMAP
FFFE
FFFE
FFFE
FFFE
FFFE
FFFE
FFFE
F01E
F7DE
F7DE
F7DE
F7DE
F7DE
F7DE
F7DE
ENDCHAR
STARTCHAR W
ENCODING 87
SWIDTH 1000 0
DWIDTH 16 0
BBX 15 15 0 -4
BITMAP
F7FE
F7FE
F7FE
F7FE
07FE
FFFE
FFFE
FFFE
FFFE
FFFE
FFFE
FFFE
FFFE
FFFE
FFFE
ENDCHAR
STARTCHAR X
ENCODING 88
SWIDTH 1000 0
DWIDTH 16 0
BBX 15 15 0 -4
BITMAP
FFDE
FFDE
FFDE
FFDE
FFDE
FFDE
FFDE
F01E
F7FE
F7FE
F7FE
F7FE
F7FE
F7FE
F7FE
ENDCHAR
STARTCHAR Y
ENCODING 89
SWIDTH 1000 0
DWIDTH 16 0
BBX 15 15 0 -4
BITMAP
FEFE
FEFE
FEFE
FEFE
F01E
FEFE
FEFE
FEFE
FEFE
FEFE
F01E
FFFE
FFFE
FFFE
FFFE
ENDCHAR
STARTCHAR Z
ENCODING 90
SWIDTH 1000 0
DWIDTH 16 0
BBX 15 15 0 -4
BITMAP
FFFE
FFFE
FFFE
FFFE
001E
FFDE
FFDE
FFDE
FFDE
FFDE
FFC0
FFFE
FFFE
FFFE
FFFE
ENDCHAR
STARTCHAR bracketleft
ENCODING 91
SWIDTH 1000 0
DWIDTH 16 0
BBX 5 15 10 -4
BITMAP
F8
80
80
80
80
80
80
80
80
80
80
80
80
80
F8
ENDCHAR
STARTCHAR backslash
ENCODING 92
SWIDTH 1000 0
DWIDTH 16 0
BBX 15 15 0 -4
BITMAP
FF00
0100
0100
0100
0100
0100
0100
0100
0100
0100
0100
0100
0100
0100
01FE
ENDCHAR
STARTCHAR bracketright
ENCODING 93
SWIDTH 1000 0
DWIDTH 16 0
BBX 5 15 0 -4
BITMAP
F8
08
08
08
08
08
08
08
08
08
08
08
08
08
F8
ENDCHAR
STARTCHAR asciicircum
ENCODING 94
SWIDTH 1000 0
DWIDTH 16 0
BBX 9 5 3 6
BITMAP
FF80
0800
0800
0800
0800
ENDCHAR
STARTCHAR underscore
ENCODING 95
SWIDTH 1000 0
DWIDTH 16 0
BBX 15 1 0 -4
BITMAP
FFFE
ENDCHAR
STARTCHAR grave
ENCODING 96
SWIDTH 1000 0
DWIDTH 16 0
BBX 7 6 4 0
BITMAP
F0
10
10
10
10
1E
ENDCHAR
STARTCHAR a
ENCODING 97
SWIDTH 1000 0
DWIDTH 16 0
BBX 15 15 0 -4
BITMAP
FFFE
8002
8002
8002
F83E
8822
8822
8FE2
8002
8002
8002
8002
8002
8002
FFFE
ENDCHAR
STARTCHAR b
ENCODING 98
SWIDTH 1000 0
DWIDTH 16 0
BBX 15 15 0 -4
BITMAP
FFFE
8002
8002
8002
8FE2
8822
8822
8822
8822
8822
FFE2
8002
8002
8002
FFFE
ENDCHAR
STARTCHAR c
ENCODING 99
SWIDTH 1000 0
DWIDTH 16 0
BBX 15 15 0 -4
BITMAP
FFFE
8002
8002
8002
803E
8022
8022
8022
8022
8022
803E
8002
8002
8002
FFFE
ENDCHAR
STARTCHAR d
ENCODING 100
SWIDTH 1000 0
DWIDTH 16 0
BBX 15 15 0 -4
BITMAP
FFFE
8002
8002
8002
8002
8002
8002
8002
8002
8002
F802
8802
8802
8802
FFFE
ENDCHAR
STARTCHAR e
ENCODING 101
SWIDTH 1000 0
DWIDTH 16 0
BBX 15 15 0 -4
BITMAP
FFFE
8002
8002
8002
8002
8002
8002
F802
8802
8802
8FFE
8002
8002
8002
FFFE
ENDCHAR
STARTCHAR f
ENCODING 102
SWIDTH 1000 0
DWIDTH 16 0
BBX 15 15 0 -4
BITMAP
FFFE
8002
8002
8002
8822
8822
8822
FFE2
8822
8822
8822
8002
8002
8002
FFFE
ENDCHAR
STARTCHAR g
ENCODING 103
SWIDTH 1000 0
DWIDTH 16 0
BBX 15 15 0 -4
BITMAP
FFFE
8022
8022
8022
81E2
8102
8102
8102
8102
8102
81E2
8022
8022
8022
FFFE
ENDCHAR
STARTCHAR h
ENCODING 104
SWIDTH 1000 0
DWIDTH 16 0
BBX 15 15 0 -4
BITMAP
FFFE
8002
8002
8002
8FE2
8822
8822
8822
8822
8822
8FE2
8022
8022
8022
FFFE
ENDCHAR
STARTCHAR i
ENCODING 105
SWIDTH 1000 0
DWIDTH 16 0
BBX 15 15 0 -4
BITMAP
FFFE
8822
8822
8822
8FE2
8002
8002
8002
8002
8002
8002
8002
8002
8002
FFFE
ENDCHAR
STARTCHAR j
ENCODING 106
SWIDTH 1000 0
DWIDTH 16 0
BBX 15 15 0 -4
BITMAP
FFFE
8002
8002
8002
8002
8002
8002
8002
8002
8002
803E
8022
8022
8022
FFFE
ENDCHAR
STARTCHAR k
ENCODING 107
SWIDTH 1000 0
DWIDTH 16 0
BBX 15 15 0 -4
BITMAP
FFFE
8022
8022
8022
8022
8022
8022
8022
8022
8022
81E2
8102
8102
8102
FFFE
ENDCHAR
STARTCHAR l
ENCODING 108
SWIDTH 1000 0
DWIDTH 16 0
BBX 15 15 0 -4
BITMAP
FFFE
8002
8002
8002
8FE2
8102
8102
8102
8102
8102
8FE2
8102
8102
8102
FFFE
ENDCHAR
STARTCHAR m
ENCODING 109
SWIDTH 1000 0
DWIDTH 16 0
BBX 15 15 0 -4
BITMAP
FFFE
8002
8002
8002
8002
8002
8002
8FE2
8822
8822
F83E
8002
8002
8002
FFFE
ENDCHAR
STARTCHAR n
ENCODING 110
SWIDTH 1000 0
DWIDTH 16 0
BBX 15 15 0 -4
BITMAP
FFFE
8002
8002
8002
8FFE
8822
8822
8822
8822
8822
8FE2
8002
8002
8002
FFFE
ENDCHAR
STARTCHAR o
ENCODING 111
SWIDTH 1000 0
DWIDTH 16 0
BBX 15 15 0 -4
BITMAP
FFFE
8002
8002
8002
F802
8802
8802
8802
8802
8802
F802
8002
8002
8002
FFFE
ENDCHAR
STARTCHAR p
ENCODING 112
SWIDTH 1000 0
DWIDTH 16 0
BBX 15 15 0 -4
BITMAP
FFFE
8022
8022
8022
803E
8002
8002
8002
8002
8002
8002
8002
8002
8002
FFFE
ENDCHAR
STARTCHAR q
ENCODING 113
SWIDTH 1000 0
DWIDTH 16 0
BBX 15 15 0 -4
BITMAP
FFFE
8002
8002
8002
FFE2
8022
8022
803E
8002
8002
8002
8002
8002
8002
FFFE
ENDCHAR
STARTCHAR r
ENCODING 114
SWIDTH 1000 0
DWIDTH 16 0
BBX 15 15 0 -4
BITMAP
FFFE
8002
8002
8002
8822
8822
8822
8FFE
8822
8822
8822
8002
8002
8002
FFFE
ENDCHAR
STARTCHAR s
ENCODING 115
SWIDTH 1000 0
DWIDTH 16 0
BBX 15 15 0 -4
BITMAP
FFFE
8802
8802
8802
8F02
8102
8102
8102
8102
8102
8F02
8802
8802
8802
FFFE
ENDCHAR
STARTCHAR t
ENCODING 116
SWIDTH 1000 0
DWIDTH 16 0
BBX 15 15 0 -4
BITMAP
FFFE
8802
8802
8802
8FE2
8822
8822
8822
8822
8822
8FE2
8002
8002
8002
FFFE
ENDCHAR
STARTCHAR u
ENCODING 117
SWIDTH 1000 0
DWIDTH 16 0
BBX 15 15 0 -4
BITMAP
FFFE
8002
8002
8002
8002
8002
8002
8002
8002
8002
8FE2
8822
8822
8822
FFFE
ENDCHAR
STARTCHAR v
ENCODING 118
SWIDTH 1000 0
DWIDTH 16 0
BBX 15 15 0 -4
BITMAP
FFFE
8002
8002
8002
8002
8002
8002
8FE2
8822
8822
8822
8822
8822
8822
FFFE
ENDCHAR
STARTCHAR w
ENCODING 119
SWIDTH 1000 0
DWIDTH 16 0
BBX 15 15 0 -4
BITMAP
FFFE
8802
8802
8802
F802
8002
8002
8002
8002
8002
8002
8002
8002
8002
FFFE
ENDCHAR
STARTCHAR x
ENCODING 120
SWIDTH 1000 0
DWIDTH 16 0
BBX 15 15 0 -4
BITMAP
FFFE
8022
8022
8022
8022
8022
8022
8FE2
8802
8802
8802
8802
8802
8802
FFFE
ENDCHAR
STARTCHAR y
ENCODING 121
SWIDTH 1000 0
DWIDTH 16 0
BBX 15 15 0 -4
BITMAP
FFFE
8102
8102
8102
8FE2
8102
8102
8102
8102
8102
8FE2
8002
8002
8002
FFFE
ENDCHAR
STARTCHAR z
ENCODING 122
SWIDTH 1000 0
DWIDTH 16 0
BBX 15 15 0 -4
BITMAP
FFFE
8002
8002
8002
8002
8002
8002
803E
8022
8022
FFE2
8002
8002
8002
FFFE
ENDCHAR
STARTCHAR braceleft
ENCODING 123
SWIDTH 1000 0
DWIDTH 16 0
BBX 5 15 10 -4
BITMAP
F8
80
80
80
80
80
80
F8
80
80
80
80
80
80
F8
ENDCHAR
STARTCHAR bar
ENCODING 124
SWIDTH 1000 0
DWIDTH 16 0
BBX 1 15 7 -4
BITMAP
80
80
80
80
80
80
80
80
80
80
80
80
80
80
80
ENDCHAR
STARTCHAR braceright
ENCODING 125
SWIDTH 1000 0
DWIDTH 16 0
BBX 5 15 0 -4
BITMAP
F8
08
08
08
08
08
08
F8
08
08
08
08
08
08
F8
ENDCHAR
STARTCHAR asciitilde
ENCODING 126
SWIDTH 1000 0
DWIDTH 16 0
BBX 11 6 2 0
BITMAP
FC20
8420
8420
8420
8420
87E0
ENDCHAR
STARTCHAR block
ENCODING 9608
SWIDTH 1000 0
DWIDTH 16 0
BBX 16 16 0 -4
BITMAP
FFFF
FFFF
FFFF
FFFF
FFFF
FFFF
FFFF
FFFF
FFFF
FFFF
FFFF
FFFF
FFFF
FFFF
FFFF
FFFF
ENDCHAR
STARTCHAR uniE0A0
ENCODING 57504
SWIDTH 1000 0
DWIDTH 16 0
BBX 9 15 5 -4
BITMAP
8000
8200
8700
8A80
8200
8200
8400
8800
9000
2000
4000
8000
8000
8000
8000
ENDCHAR
STARTCHAR uniE0A1
ENCODING 57505
SWIDTH 1000 0
DWIDTH 16 0
BBX 15 15 0 -4
BITMAP
FFFE
A002
A002
A002
A002
A002
A08A
A08A
BE8A
80CA
80AA
809A
808A
808A
FFFE
ENDCHAR
STARTCHAR uniE0A2
ENCODING 57506
SWIDTH 1000 0
DWIDTH 16 0
BBX 9 11 3 -2
BITMAP
3E00
4100
4100
4100
FF80
8080
8880
8880
8880
8080
7F00
ENDCHAR
STARTCHAR uniE0B0
ENCODING 57520
SWIDTH 1000 0
DWIDTH 16 0
BBX 8 16 0 -4
BITMAP
80
C0
E0
F0
F8
FC
FE
FF
FF
FE
FC
F8
F0
E0
C0
80
ENDCHAR
STARTCHAR uniE0B1
ENCODING 57521
SWIDTH 1000 0
DWIDTH 16 0
BBX 8 16 0 -4
BITMAP
80
40
20
10
08
04
02
01
01
02
04
08
10
20
40
80
ENDCHAR
STARTCHAR uniE0B2
ENCODING 57522
SWIDTH 1000 0
DWIDTH 16 0
BBX 8 16 0 -4
BITMAP
01
03
07
0F
1F
3F
7F
FF
FF
7F
3F
1F
0F
07
03
01
ENDCHAR
STARTCHAR uniE0B3
ENCODING 57523
SWIDTH 1000 0
DWIDTH 16 0
BBX 8 16 0 -4
BITMAP
01
02
04
08
10
20
40
80
80
40
20
10
08
04
02
01
ENDCHAR
ENDFONT
